<!-- Generator: Adobe Illustrator 21.0.0, SVG Export Plug-In  -->
<svg version="1.1"
	 xmlns="http://www.w3.org/2000/svg" xmlns:xlink="http://www.w3.org/1999/xlink" xmlns:a="http://ns.adobe.com/AdobeSVGViewerExtensions/3.0/"
	 x="0px" y="0px" width="30.1px" height="30.1px" viewBox="0 0 30.1 30.1" style="enable-background:new 0 0 30.1 30.1;"
	 xml:space="preserve">
<style type="text/css">
	.st0{fill:#333333;}
</style>
<defs>
</defs>
<g>
	<path class="st0" d="M29.1,28.1h-3.3V1c0-0.3-0.2-0.6-0.4-0.8c-0.3-0.2-0.6-0.2-0.9-0.1L11.3,4.6c-0.4,0.1-0.7,0.5-0.7,0.9v4.6
		l-6.3,1.9c-0.4,0.1-0.7,0.5-0.7,1v14.9H1c-0.6,0-1,0.4-1,1s0.4,1,1,1h3.7c0.6,0,1-0.4,1-1V13.8l12.8-4v19.2c0,0.6,0.4,1,1,1h5.3
		h4.3c0.6,0,1-0.4,1-1S29.6,28.1,29.1,28.1z"/>
	<path class="st0" d="M15,13.2l-7.4,2.3c-0.5,0.2-0.8,0.7-0.7,1.3c0.1,0.4,0.5,0.7,1,0.7c0.1,0,0.2,0,0.3,0l7.4-2.3
		c0.5-0.2,0.8-0.7,0.7-1.3C16.1,13.3,15.5,13,15,13.2z"/>
	<path class="st0" d="M15,18.2l-7.4,2.3c-0.5,0.2-0.8,0.7-0.7,1.3c0.1,0.4,0.5,0.7,1,0.7c0.1,0,0.2,0,0.3,0l7.4-2.3
		c0.5-0.2,0.8-0.7,0.7-1.3C16.1,18.3,15.5,18,15,18.2z"/>
	<path class="st0" d="M15,23.2l-7.4,2.3c-0.5,0.2-0.8,0.7-0.7,1.3c0.1,0.4,0.5,0.7,1,0.7c0.1,0,0.2,0,0.3,0l7.4-2.3
		c0.5-0.2,0.8-0.7,0.7-1.3C16.1,23.4,15.5,23.1,15,23.2z"/>
</g>
</svg>
